<?xml version="1.0" encoding="utf-8" standalone="no"?>
<!DOCTYPE svg PUBLIC "-//W3C//DTD SVG 1.1//EN"
  "http://www.w3.org/Graphics/SVG/1.1/DTD/svg11.dtd">
<svg xmlns:xlink="http://www.w3.org/1999/xlink" width="720pt" height="432pt" viewBox="0 0 720 432" xmlns="http://www.w3.org/2000/svg" version="1.1">
 <metadata>
  <rdf:RDF xmlns:dc="http://purl.org/dc/elements/1.1/" xmlns:cc="http://creativecommons.org/ns#" xmlns:rdf="http://www.w3.org/1999/02/22-rdf-syntax-ns#">
   <cc:Work>
    <dc:type rdf:resource="http://purl.org/dc/dcmitype/StillImage"/>
    <dc:date>2024-10-23T14:48:40.305758</dc:date>
    <dc:format>image/svg+xml</dc:format>
    <dc:creator>
     <cc:Agent>
      <dc:title>Matplotlib v3.8.3, https://matplotlib.org/</dc:title>
     </cc:Agent>
    </dc:creator>
   </cc:Work>
  </rdf:RDF>
 </metadata>
 <defs>
  <style type="text/css">*{stroke-linejoin: round; stroke-linecap: butt}</style>
 </defs>
 <g id="figure_1">
  <g id="patch_1">
   <path d="M 0 432 
L 720 432 
L 720 0 
L 0 0 
z
" style="fill: #ffffff"/>
  </g>
  <g id="axes_1">
   <g id="patch_2">
    <path d="M 90 384.48 
L 648 384.48 
L 648 51.84 
L 90 51.84 
z
" style="fill: #ffffff"/>
   </g>
   <g id="PathCollection_1">
    <defs>
     <path id="m6bce603df6" d="M 0 0.707107 
C 0.187527 0.707107 0.367398 0.632602 0.5 0.5 
C 0.632602 0.367398 0.707107 0.187527 0.707107 0 
C 0.707107 -0.187527 0.632602 -0.367398 0.5 -0.5 
C 0.367398 -0.632602 0.187527 -0.707107 0 -0.707107 
C -0.187527 -0.707107 -0.367398 -0.632602 -0.5 -0.5 
C -0.632602 -0.367398 -0.707107 -0.187527 -0.707107 0 
C -0.707107 0.187527 -0.632602 0.367398 -0.5 0.5 
C -0.367398 0.632602 -0.187527 0.707107 0 0.707107 
z
" style="stroke: #0000ff"/>
    </defs>
    <g clip-path="url(#p9aca181329)">
     <use xlink:href="#m6bce603df6" x="115.363636" y="369.36" style="fill: #0000ff; stroke: #0000ff"/>
     <use xlink:href="#m6bce603df6" x="128.370629" y="369.33248" style="fill: #0000ff; stroke: #0000ff"/>
     <use xlink:href="#m6bce603df6" x="141.377622" y="369.307941" style="fill: #0000ff; stroke: #0000ff"/>
     <use xlink:href="#m6bce603df6" x="154.384615" y="369.290728" style="fill: #0000ff; stroke: #0000ff"/>
     <use xlink:href="#m6bce603df6" x="167.391608" y="369.273628" style="fill: #0000ff; stroke: #0000ff"/>
     <use xlink:href="#m6bce603df6" x="180.398601" y="369.269553" style="fill: #0000ff; stroke: #0000ff"/>
     <use xlink:href="#m6bce603df6" x="193.405594" y="369.25767" style="fill: #0000ff; stroke: #0000ff"/>
     <use xlink:href="#m6bce603df6" x="206.412587" y="369.246792" style="fill: #0000ff; stroke: #0000ff"/>
     <use xlink:href="#m6bce603df6" x="219.41958" y="369.247335" style="fill: #0000ff; stroke: #0000ff"/>
     <use xlink:href="#m6bce603df6" x="232.426573" y="369.22404" style="fill: #0000ff; stroke: #0000ff"/>
     <use xlink:href="#m6bce603df6" x="245.433566" y="369.205885" style="fill: #0000ff; stroke: #0000ff"/>
     <use xlink:href="#m6bce603df6" x="258.440559" y="369.184676" style="fill: #0000ff; stroke: #0000ff"/>
     <use xlink:href="#m6bce603df6" x="271.447552" y="369.163812" style="fill: #0000ff; stroke: #0000ff"/>
     <use xlink:href="#m6bce603df6" x="284.454545" y="369.118998" style="fill: #0000ff; stroke: #0000ff"/>
     <use xlink:href="#m6bce603df6" x="297.461538" y="369.082198" style="fill: #0000ff; stroke: #0000ff"/>
     <use xlink:href="#m6bce603df6" x="310.468531" y="369.072796" style="fill: #0000ff; stroke: #0000ff"/>
     <use xlink:href="#m6bce603df6" x="323.475524" y="369.044565" style="fill: #0000ff; stroke: #0000ff"/>
     <use xlink:href="#m6bce603df6" x="336.482517" y="369.003151" style="fill: #0000ff; stroke: #0000ff"/>
     <use xlink:href="#m6bce603df6" x="349.48951" y="368.974277" style="fill: #0000ff; stroke: #0000ff"/>
     <use xlink:href="#m6bce603df6" x="362.496503" y="368.955881" style="fill: #0000ff; stroke: #0000ff"/>
     <use xlink:href="#m6bce603df6" x="375.503497" y="368.924981" style="fill: #0000ff; stroke: #0000ff"/>
     <use xlink:href="#m6bce603df6" x="388.51049" y="368.875278" style="fill: #0000ff; stroke: #0000ff"/>
     <use xlink:href="#m6bce603df6" x="401.517483" y="368.840746" style="fill: #0000ff; stroke: #0000ff"/>
     <use xlink:href="#m6bce603df6" x="414.524476" y="368.803028" style="fill: #0000ff; stroke: #0000ff"/>
     <use xlink:href="#m6bce603df6" x="427.531469" y="368.783574" style="fill: #0000ff; stroke: #0000ff"/>
     <use xlink:href="#m6bce603df6" x="440.538462" y="368.731256" style="fill: #0000ff; stroke: #0000ff"/>
     <use xlink:href="#m6bce603df6" x="453.545455" y="368.720388" style="fill: #0000ff; stroke: #0000ff"/>
     <use xlink:href="#m6bce603df6" x="466.552448" y="368.683085" style="fill: #0000ff; stroke: #0000ff"/>
     <use xlink:href="#m6bce603df6" x="479.559441" y="368.637922" style="fill: #0000ff; stroke: #0000ff"/>
     <use xlink:href="#m6bce603df6" x="492.566434" y="368.589661" style="fill: #0000ff; stroke: #0000ff"/>
     <use xlink:href="#m6bce603df6" x="505.573427" y="368.577345" style="fill: #0000ff; stroke: #0000ff"/>
     <use xlink:href="#m6bce603df6" x="518.58042" y="368.54934" style="fill: #0000ff; stroke: #0000ff"/>
     <use xlink:href="#m6bce603df6" x="531.587413" y="368.514615" style="fill: #0000ff; stroke: #0000ff"/>
     <use xlink:href="#m6bce603df6" x="544.594406" y="368.463526" style="fill: #0000ff; stroke: #0000ff"/>
     <use xlink:href="#m6bce603df6" x="557.601399" y="368.436841" style="fill: #0000ff; stroke: #0000ff"/>
     <use xlink:href="#m6bce603df6" x="570.608392" y="368.425411" style="fill: #0000ff; stroke: #0000ff"/>
     <use xlink:href="#m6bce603df6" x="583.615385" y="368.396836" style="fill: #0000ff; stroke: #0000ff"/>
     <use xlink:href="#m6bce603df6" x="596.622378" y="368.343255" style="fill: #0000ff; stroke: #0000ff"/>
     <use xlink:href="#m6bce603df6" x="609.629371" y="368.286811" style="fill: #0000ff; stroke: #0000ff"/>
     <use xlink:href="#m6bce603df6" x="622.636364" y="368.273817" style="fill: #0000ff; stroke: #0000ff"/>
    </g>
   </g>
   <g id="PathCollection_2">
    <defs>
     <path id="m620fbd3302" d="M 0 0.707107 
C 0.187527 0.707107 0.367398 0.632602 0.5 0.5 
C 0.632602 0.367398 0.707107 0.187527 0.707107 0 
C 0.707107 -0.187527 0.632602 -0.367398 0.5 -0.5 
C 0.367398 -0.632602 0.187527 -0.707107 0 -0.707107 
C -0.187527 -0.707107 -0.367398 -0.632602 -0.5 -0.5 
C -0.632602 -0.367398 -0.707107 -0.187527 -0.707107 0 
C -0.707107 0.187527 -0.632602 0.367398 -0.5 0.5 
C -0.367398 0.632602 -0.187527 0.707107 0 0.707107 
z
" style="stroke: #ffa500"/>
    </defs>
    <g clip-path="url(#p9aca181329)">
     <use xlink:href="#m620fbd3302" x="115.363636" y="369.36" style="fill: #ffa500; stroke: #ffa500"/>
     <use xlink:href="#m620fbd3302" x="128.370629" y="368.94395" style="fill: #ffa500; stroke: #ffa500"/>
     <use xlink:href="#m620fbd3302" x="141.377622" y="367.798211" style="fill: #ffa500; stroke: #ffa500"/>
     <use xlink:href="#m620fbd3302" x="154.384615" y="366.236422" style="fill: #ffa500; stroke: #ffa500"/>
     <use xlink:href="#m620fbd3302" x="167.391608" y="364.92152" style="fill: #ffa500; stroke: #ffa500"/>
     <use xlink:href="#m620fbd3302" x="180.398601" y="362.997631" style="fill: #ffa500; stroke: #ffa500"/>
     <use xlink:href="#m620fbd3302" x="193.405594" y="361.530939" style="fill: #ffa500; stroke: #ffa500"/>
     <use xlink:href="#m620fbd3302" x="206.412587" y="359.464403" style="fill: #ffa500; stroke: #ffa500"/>
     <use xlink:href="#m620fbd3302" x="219.41958" y="356.89495" style="fill: #ffa500; stroke: #ffa500"/>
     <use xlink:href="#m620fbd3302" x="232.426573" y="353.97071" style="fill: #ffa500; stroke: #ffa500"/>
     <use xlink:href="#m620fbd3302" x="245.433566" y="350.091841" style="fill: #ffa500; stroke: #ffa500"/>
     <use xlink:href="#m620fbd3302" x="258.440559" y="345.609471" style="fill: #ffa500; stroke: #ffa500"/>
     <use xlink:href="#m620fbd3302" x="271.447552" y="339.303794" style="fill: #ffa500; stroke: #ffa500"/>
     <use xlink:href="#m620fbd3302" x="284.454545" y="334.157571" style="fill: #ffa500; stroke: #ffa500"/>
     <use xlink:href="#m620fbd3302" x="297.461538" y="328.773606" style="fill: #ffa500; stroke: #ffa500"/>
     <use xlink:href="#m620fbd3302" x="310.468531" y="324.552753" style="fill: #ffa500; stroke: #ffa500"/>
     <use xlink:href="#m620fbd3302" x="323.475524" y="319.454079" style="fill: #ffa500; stroke: #ffa500"/>
     <use xlink:href="#m620fbd3302" x="336.482517" y="313.168519" style="fill: #ffa500; stroke: #ffa500"/>
     <use xlink:href="#m620fbd3302" x="349.48951" y="306.045371" style="fill: #ffa500; stroke: #ffa500"/>
     <use xlink:href="#m620fbd3302" x="362.496503" y="298.664365" style="fill: #ffa500; stroke: #ffa500"/>
     <use xlink:href="#m620fbd3302" x="375.503497" y="291.956353" style="fill: #ffa500; stroke: #ffa500"/>
     <use xlink:href="#m620fbd3302" x="388.51049" y="284.002934" style="fill: #ffa500; stroke: #ffa500"/>
     <use xlink:href="#m620fbd3302" x="401.517483" y="275.049166" style="fill: #ffa500; stroke: #ffa500"/>
     <use xlink:href="#m620fbd3302" x="414.524476" y="265.245009" style="fill: #ffa500; stroke: #ffa500"/>
     <use xlink:href="#m620fbd3302" x="427.531469" y="257.308049" style="fill: #ffa500; stroke: #ffa500"/>
     <use xlink:href="#m620fbd3302" x="440.538462" y="247.93" style="fill: #ffa500; stroke: #ffa500"/>
     <use xlink:href="#m620fbd3302" x="453.545455" y="237.847867" style="fill: #ffa500; stroke: #ffa500"/>
     <use xlink:href="#m620fbd3302" x="466.552448" y="226.818419" style="fill: #ffa500; stroke: #ffa500"/>
     <use xlink:href="#m620fbd3302" x="479.559441" y="217.105701" style="fill: #ffa500; stroke: #ffa500"/>
     <use xlink:href="#m620fbd3302" x="492.566434" y="206.694385" style="fill: #ffa500; stroke: #ffa500"/>
     <use xlink:href="#m620fbd3302" x="505.573427" y="193.627662" style="fill: #ffa500; stroke: #ffa500"/>
     <use xlink:href="#m620fbd3302" x="518.58042" y="181.914245" style="fill: #ffa500; stroke: #ffa500"/>
     <use xlink:href="#m620fbd3302" x="531.587413" y="169.904564" style="fill: #ffa500; stroke: #ffa500"/>
     <use xlink:href="#m620fbd3302" x="544.594406" y="155.757025" style="fill: #ffa500; stroke: #ffa500"/>
     <use xlink:href="#m620fbd3302" x="557.601399" y="139.780692" style="fill: #ffa500; stroke: #ffa500"/>
     <use xlink:href="#m620fbd3302" x="570.608392" y="125.920273" style="fill: #ffa500; stroke: #ffa500"/>
     <use xlink:href="#m620fbd3302" x="583.615385" y="111.23324" style="fill: #ffa500; stroke: #ffa500"/>
     <use xlink:href="#m620fbd3302" x="596.622378" y="96.57181" style="fill: #ffa500; stroke: #ffa500"/>
     <use xlink:href="#m620fbd3302" x="609.629371" y="83.698939" style="fill: #ffa500; stroke: #ffa500"/>
     <use xlink:href="#m620fbd3302" x="622.636364" y="67.166654" style="fill: #ffa500; stroke: #ffa500"/>
    </g>
   </g>
   <g id="PathCollection_3">
    <defs>
     <path id="mdc23a184e7" d="M 0 0.707107 
C 0.187527 0.707107 0.367398 0.632602 0.5 0.5 
C 0.632602 0.367398 0.707107 0.187527 0.707107 0 
C 0.707107 -0.187527 0.632602 -0.367398 0.5 -0.5 
C 0.367398 -0.632602 0.187527 -0.707107 0 -0.707107 
C -0.187527 -0.707107 -0.367398 -0.632602 -0.5 -0.5 
C -0.632602 -0.367398 -0.707107 -0.187527 -0.707107 0 
C -0.707107 0.187527 -0.632602 0.367398 -0.5 0.5 
C -0.367398 0.632602 -0.187527 0.707107 0 0.707107 
z
" style="stroke: #008000"/>
    </defs>
    <g clip-path="url(#p9aca181329)">
     <use xlink:href="#mdc23a184e7" x="115.363636" y="369.36" style="fill: #008000; stroke: #008000"/>
     <use xlink:href="#mdc23a184e7" x="128.370629" y="368.949225" style="fill: #008000; stroke: #008000"/>
     <use xlink:href="#mdc23a184e7" x="141.377622" y="367.98231" style="fill: #008000; stroke: #008000"/>
     <use xlink:href="#mdc23a184e7" x="154.384615" y="366.205333" style="fill: #008000; stroke: #008000"/>
     <use xlink:href="#mdc23a184e7" x="167.391608" y="364.919692" style="fill: #008000; stroke: #008000"/>
     <use xlink:href="#mdc23a184e7" x="180.398601" y="363.442942" style="fill: #008000; stroke: #008000"/>
     <use xlink:href="#mdc23a184e7" x="193.405594" y="361.556542" style="fill: #008000; stroke: #008000"/>
     <use xlink:href="#mdc23a184e7" x="206.412587" y="359.671057" style="fill: #008000; stroke: #008000"/>
     <use xlink:href="#mdc23a184e7" x="219.41958" y="357.134521" style="fill: #008000; stroke: #008000"/>
     <use xlink:href="#mdc23a184e7" x="232.426573" y="353.961566" style="fill: #008000; stroke: #008000"/>
     <use xlink:href="#mdc23a184e7" x="245.433566" y="350.066238" style="fill: #008000; stroke: #008000"/>
     <use xlink:href="#mdc23a184e7" x="258.440559" y="345.861844" style="fill: #008000; stroke: #008000"/>
     <use xlink:href="#mdc23a184e7" x="271.447552" y="339.479358" style="fill: #008000; stroke: #008000"/>
     <use xlink:href="#mdc23a184e7" x="284.454545" y="334.411773" style="fill: #008000; stroke: #008000"/>
     <use xlink:href="#mdc23a184e7" x="297.461538" y="330.763332" style="fill: #008000; stroke: #008000"/>
     <use xlink:href="#mdc23a184e7" x="310.468531" y="323.861469" style="fill: #008000; stroke: #008000"/>
     <use xlink:href="#mdc23a184e7" x="323.475524" y="319.17976" style="fill: #008000; stroke: #008000"/>
     <use xlink:href="#mdc23a184e7" x="336.482517" y="313.042332" style="fill: #008000; stroke: #008000"/>
     <use xlink:href="#mdc23a184e7" x="349.48951" y="305.10903" style="fill: #008000; stroke: #008000"/>
     <use xlink:href="#mdc23a184e7" x="362.496503" y="299.090473" style="fill: #008000; stroke: #008000"/>
     <use xlink:href="#mdc23a184e7" x="375.503497" y="292.071567" style="fill: #008000; stroke: #008000"/>
     <use xlink:href="#mdc23a184e7" x="388.51049" y="283.05562" style="fill: #008000; stroke: #008000"/>
     <use xlink:href="#mdc23a184e7" x="401.517483" y="275.444185" style="fill: #008000; stroke: #008000"/>
     <use xlink:href="#mdc23a184e7" x="414.524476" y="263.357085" style="fill: #008000; stroke: #008000"/>
     <use xlink:href="#mdc23a184e7" x="427.531469" y="255.301863" style="fill: #008000; stroke: #008000"/>
     <use xlink:href="#mdc23a184e7" x="440.538462" y="247.119845" style="fill: #008000; stroke: #008000"/>
     <use xlink:href="#mdc23a184e7" x="453.545455" y="238.155104" style="fill: #008000; stroke: #008000"/>
     <use xlink:href="#mdc23a184e7" x="466.552448" y="227.169547" style="fill: #008000; stroke: #008000"/>
     <use xlink:href="#mdc23a184e7" x="479.559441" y="217.848191" style="fill: #008000; stroke: #008000"/>
     <use xlink:href="#mdc23a184e7" x="492.566434" y="206.602945" style="fill: #008000; stroke: #008000"/>
     <use xlink:href="#mdc23a184e7" x="505.573427" y="193.922097" style="fill: #008000; stroke: #008000"/>
     <use xlink:href="#mdc23a184e7" x="518.58042" y="181.345491" style="fill: #008000; stroke: #008000"/>
     <use xlink:href="#mdc23a184e7" x="531.587413" y="169.505887" style="fill: #008000; stroke: #008000"/>
     <use xlink:href="#mdc23a184e7" x="544.594406" y="153.661228" style="fill: #008000; stroke: #008000"/>
     <use xlink:href="#mdc23a184e7" x="557.601399" y="139.230226" style="fill: #008000; stroke: #008000"/>
     <use xlink:href="#mdc23a184e7" x="570.608392" y="126.262258" style="fill: #008000; stroke: #008000"/>
     <use xlink:href="#mdc23a184e7" x="583.615385" y="110.655342" style="fill: #008000; stroke: #008000"/>
     <use xlink:href="#mdc23a184e7" x="596.622378" y="97.5557" style="fill: #008000; stroke: #008000"/>
     <use xlink:href="#mdc23a184e7" x="609.629371" y="83.386215" style="fill: #008000; stroke: #008000"/>
     <use xlink:href="#mdc23a184e7" x="622.636364" y="66.96" style="fill: #008000; stroke: #008000"/>
    </g>
   </g>
   <g id="matplotlib.axis_1">
    <g id="xtick_1">
     <g id="line2d_1">
      <path d="M 115.103497 384.48 
L 115.103497 51.84 
" clip-path="url(#p9aca181329)" style="fill: none; stroke: #b0b0b0; stroke-width: 0.8; stroke-linecap: square"/>
     </g>
     <g id="line2d_2">
      <defs>
       <path id="m543a254d70" d="M 0 0 
L 0 3.5 
" style="stroke: #000000; stroke-width: 0.8"/>
      </defs>
      <g>
       <use xlink:href="#m543a254d70" x="115.103497" y="384.48" style="stroke: #000000; stroke-width: 0.8"/>
      </g>
     </g>
     <g id="text_1">
      <!-- 0 -->
      <g transform="translate(111.922247 399.078438) scale(0.1 -0.1)">
       <defs>
        <path id="DejaVuSans-30" d="M 2034 4250 
Q 1547 4250 1301 3770 
Q 1056 3291 1056 2328 
Q 1056 1369 1301 889 
Q 1547 409 2034 409 
Q 2525 409 2770 889 
Q 3016 1369 3016 2328 
Q 3016 3291 2770 3770 
Q 2525 4250 2034 4250 
z
M 2034 4750 
Q 2819 4750 3233 4129 
Q 3647 3509 3647 2328 
Q 3647 1150 3233 529 
Q 2819 -91 2034 -91 
Q 1250 -91 836 529 
Q 422 1150 422 2328 
Q 422 3509 836 4129 
Q 1250 4750 2034 4750 
z
" transform="scale(0.015625)"/>
       </defs>
       <use xlink:href="#DejaVuSans-30"/>
      </g>
     </g>
    </g>
    <g id="xtick_2">
     <g id="line2d_3">
      <path d="M 180.138462 384.48 
L 180.138462 51.84 
" clip-path="url(#p9aca181329)" style="fill: none; stroke: #b0b0b0; stroke-width: 0.8; stroke-linecap: square"/>
     </g>
     <g id="line2d_4">
      <g>
       <use xlink:href="#m543a254d70" x="180.138462" y="384.48" style="stroke: #000000; stroke-width: 0.8"/>
      </g>
     </g>
     <g id="text_2">
      <!-- 250 -->
      <g transform="translate(170.594712 399.078438) scale(0.1 -0.1)">
       <defs>
        <path id="DejaVuSans-32" d="M 1228 531 
L 3431 531 
L 3431 0 
L 469 0 
L 469 531 
Q 828 903 1448 1529 
Q 2069 2156 2228 2338 
Q 2531 2678 2651 2914 
Q 2772 3150 2772 3378 
Q 2772 3750 2511 3984 
Q 2250 4219 1831 4219 
Q 1534 4219 1204 4116 
Q 875 4013 500 3803 
L 500 4441 
Q 881 4594 1212 4672 
Q 1544 4750 1819 4750 
Q 2544 4750 2975 4387 
Q 3406 4025 3406 3419 
Q 3406 3131 3298 2873 
Q 3191 2616 2906 2266 
Q 2828 2175 2409 1742 
Q 1991 1309 1228 531 
z
" transform="scale(0.015625)"/>
        <path id="DejaVuSans-35" d="M 691 4666 
L 3169 4666 
L 3169 4134 
L 1269 4134 
L 1269 2991 
Q 1406 3038 1543 3061 
Q 1681 3084 1819 3084 
Q 2600 3084 3056 2656 
Q 3513 2228 3513 1497 
Q 3513 744 3044 326 
Q 2575 -91 1722 -91 
Q 1428 -91 1123 -41 
Q 819 9 494 109 
L 494 744 
Q 775 591 1075 516 
Q 1375 441 1709 441 
Q 2250 441 2565 725 
Q 2881 1009 2881 1497 
Q 2881 1984 2565 2268 
Q 2250 2553 1709 2553 
Q 1456 2553 1204 2497 
Q 953 2441 691 2322 
L 691 4666 
z
" transform="scale(0.015625)"/>
       </defs>
       <use xlink:href="#DejaVuSans-32"/>
       <use xlink:href="#DejaVuSans-35" x="63.623047"/>
       <use xlink:href="#DejaVuSans-30" x="127.246094"/>
      </g>
     </g>
    </g>
    <g id="xtick_3">
     <g id="line2d_5">
      <path d="M 245.173427 384.48 
L 245.173427 51.84 
" clip-path="url(#p9aca181329)" style="fill: none; stroke: #b0b0b0; stroke-width: 0.8; stroke-linecap: square"/>
     </g>
     <g id="line2d_6">
      <g>
       <use xlink:href="#m543a254d70" x="245.173427" y="384.48" style="stroke: #000000; stroke-width: 0.8"/>
      </g>
     </g>
     <g id="text_3">
      <!-- 500 -->
      <g transform="translate(235.629677 399.078438) scale(0.1 -0.1)">
       <use xlink:href="#DejaVuSans-35"/>
       <use xlink:href="#DejaVuSans-30" x="63.623047"/>
       <use xlink:href="#DejaVuSans-30" x="127.246094"/>
      </g>
     </g>
    </g>
    <g id="xtick_4">
     <g id="line2d_7">
      <path d="M 310.208392 384.48 
L 310.208392 51.84 
" clip-path="url(#p9aca181329)" style="fill: none; stroke: #b0b0b0; stroke-width: 0.8; stroke-linecap: square"/>
     </g>
     <g id="line2d_8">
      <g>
       <use xlink:href="#m543a254d70" x="310.208392" y="384.48" style="stroke: #000000; stroke-width: 0.8"/>
      </g>
     </g>
     <g id="text_4">
      <!-- 750 -->
      <g transform="translate(300.664642 399.078438) scale(0.1 -0.1)">
       <defs>
        <path id="DejaVuSans-37" d="M 525 4666 
L 3525 4666 
L 3525 4397 
L 1831 0 
L 1172 0 
L 2766 4134 
L 525 4134 
L 525 4666 
z
" transform="scale(0.015625)"/>
       </defs>
       <use xlink:href="#DejaVuSans-37"/>
       <use xlink:href="#DejaVuSans-35" x="63.623047"/>
       <use xlink:href="#DejaVuSans-30" x="127.246094"/>
      </g>
     </g>
    </g>
    <g id="xtick_5">
     <g id="line2d_9">
      <path d="M 375.243357 384.48 
L 375.243357 51.84 
" clip-path="url(#p9aca181329)" style="fill: none; stroke: #b0b0b0; stroke-width: 0.8; stroke-linecap: square"/>
     </g>
     <g id="line2d_10">
      <g>
       <use xlink:href="#m543a254d70" x="375.243357" y="384.48" style="stroke: #000000; stroke-width: 0.8"/>
      </g>
     </g>
     <g id="text_5">
      <!-- 1000 -->
      <g transform="translate(362.518357 399.078438) scale(0.1 -0.1)">
       <defs>
        <path id="DejaVuSans-31" d="M 794 531 
L 1825 531 
L 1825 4091 
L 703 3866 
L 703 4441 
L 1819 4666 
L 2450 4666 
L 2450 531 
L 3481 531 
L 3481 0 
L 794 0 
L 794 531 
z
" transform="scale(0.015625)"/>
       </defs>
       <use xlink:href="#DejaVuSans-31"/>
       <use xlink:href="#DejaVuSans-30" x="63.623047"/>
       <use xlink:href="#DejaVuSans-30" x="127.246094"/>
       <use xlink:href="#DejaVuSans-30" x="190.869141"/>
      </g>
     </g>
    </g>
    <g id="xtick_6">
     <g id="line2d_11">
      <path d="M 440.278322 384.48 
L 440.278322 51.84 
" clip-path="url(#p9aca181329)" style="fill: none; stroke: #b0b0b0; stroke-width: 0.8; stroke-linecap: square"/>
     </g>
     <g id="line2d_12">
      <g>
       <use xlink:href="#m543a254d70" x="440.278322" y="384.48" style="stroke: #000000; stroke-width: 0.8"/>
      </g>
     </g>
     <g id="text_6">
      <!-- 1250 -->
      <g transform="translate(427.553322 399.078438) scale(0.1 -0.1)">
       <use xlink:href="#DejaVuSans-31"/>
       <use xlink:href="#DejaVuSans-32" x="63.623047"/>
       <use xlink:href="#DejaVuSans-35" x="127.246094"/>
       <use xlink:href="#DejaVuSans-30" x="190.869141"/>
      </g>
     </g>
    </g>
    <g id="xtick_7">
     <g id="line2d_13">
      <path d="M 505.313287 384.48 
L 505.313287 51.84 
" clip-path="url(#p9aca181329)" style="fill: none; stroke: #b0b0b0; stroke-width: 0.8; stroke-linecap: square"/>
     </g>
     <g id="line2d_14">
      <g>
       <use xlink:href="#m543a254d70" x="505.313287" y="384.48" style="stroke: #000000; stroke-width: 0.8"/>
      </g>
     </g>
     <g id="text_7">
      <!-- 1500 -->
      <g transform="translate(492.588287 399.078438) scale(0.1 -0.1)">
       <use xlink:href="#DejaVuSans-31"/>
       <use xlink:href="#DejaVuSans-35" x="63.623047"/>
       <use xlink:href="#DejaVuSans-30" x="127.246094"/>
       <use xlink:href="#DejaVuSans-30" x="190.869141"/>
      </g>
     </g>
    </g>
    <g id="xtick_8">
     <g id="line2d_15">
      <path d="M 570.348252 384.48 
L 570.348252 51.84 
" clip-path="url(#p9aca181329)" style="fill: none; stroke: #b0b0b0; stroke-width: 0.8; stroke-linecap: square"/>
     </g>
     <g id="line2d_16">
      <g>
       <use xlink:href="#m543a254d70" x="570.348252" y="384.48" style="stroke: #000000; stroke-width: 0.8"/>
      </g>
     </g>
     <g id="text_8">
      <!-- 1750 -->
      <g transform="translate(557.623252 399.078438) scale(0.1 -0.1)">
       <use xlink:href="#DejaVuSans-31"/>
       <use xlink:href="#DejaVuSans-37" x="63.623047"/>
       <use xlink:href="#DejaVuSans-35" x="127.246094"/>
       <use xlink:href="#DejaVuSans-30" x="190.869141"/>
      </g>
     </g>
    </g>
    <g id="xtick_9">
     <g id="line2d_17">
      <path d="M 635.383217 384.48 
L 635.383217 51.84 
" clip-path="url(#p9aca181329)" style="fill: none; stroke: #b0b0b0; stroke-width: 0.8; stroke-linecap: square"/>
     </g>
     <g id="line2d_18">
      <g>
       <use xlink:href="#m543a254d70" x="635.383217" y="384.48" style="stroke: #000000; stroke-width: 0.8"/>
      </g>
     </g>
     <g id="text_9">
      <!-- 2000 -->
      <g transform="translate(622.658217 399.078438) scale(0.1 -0.1)">
       <use xlink:href="#DejaVuSans-32"/>
       <use xlink:href="#DejaVuSans-30" x="63.623047"/>
       <use xlink:href="#DejaVuSans-30" x="127.246094"/>
       <use xlink:href="#DejaVuSans-30" x="190.869141"/>
      </g>
     </g>
    </g>
    <g id="text_10">
     <!-- Размеры массива -->
     <g transform="translate(323.108594 412.756563) scale(0.1 -0.1)">
      <defs>
       <path id="DejaVuSans-420" d="M 1259 4147 
L 1259 2394 
L 2053 2394 
Q 2494 2394 2734 2622 
Q 2975 2850 2975 3272 
Q 2975 3691 2734 3919 
Q 2494 4147 2053 4147 
L 1259 4147 
z
M 628 4666 
L 2053 4666 
Q 2838 4666 3239 4311 
Q 3641 3956 3641 3272 
Q 3641 2581 3239 2228 
Q 2838 1875 2053 1875 
L 1259 1875 
L 1259 0 
L 628 0 
L 628 4666 
z
" transform="scale(0.015625)"/>
       <path id="DejaVuSans-430" d="M 2194 1759 
Q 1497 1759 1228 1600 
Q 959 1441 959 1056 
Q 959 750 1161 570 
Q 1363 391 1709 391 
Q 2188 391 2477 730 
Q 2766 1069 2766 1631 
L 2766 1759 
L 2194 1759 
z
M 3341 1997 
L 3341 0 
L 2766 0 
L 2766 531 
Q 2569 213 2275 61 
Q 1981 -91 1556 -91 
Q 1019 -91 701 211 
Q 384 513 384 1019 
Q 384 1609 779 1909 
Q 1175 2209 1959 2209 
L 2766 2209 
L 2766 2266 
Q 2766 2663 2505 2880 
Q 2244 3097 1772 3097 
Q 1472 3097 1187 3025 
Q 903 2953 641 2809 
L 641 3341 
Q 956 3463 1253 3523 
Q 1550 3584 1831 3584 
Q 2591 3584 2966 3190 
Q 3341 2797 3341 1997 
z
" transform="scale(0.015625)"/>
       <path id="DejaVuSans-437" d="M 2206 1888 
Q 2594 1813 2809 1584 
Q 3025 1356 3025 1019 
Q 3025 478 2622 193 
Q 2219 -91 1475 -91 
Q 1225 -91 961 -47 
Q 697 -3 416 84 
L 416 619 
Q 638 503 903 445 
Q 1169 388 1459 388 
Q 1931 388 2195 563 
Q 2459 738 2459 1019 
Q 2459 1294 2225 1461 
Q 1991 1628 1563 1628 
L 1100 1628 
L 1100 2103 
L 1584 2103 
Q 1947 2103 2158 2242 
Q 2369 2381 2369 2600 
Q 2369 2800 2151 2944 
Q 1934 3088 1563 3088 
Q 1341 3088 1089 3047 
Q 838 3006 534 2916 
L 534 3438 
Q 841 3513 1106 3550 
Q 1372 3588 1609 3588 
Q 2222 3588 2576 3342 
Q 2931 3097 2931 2656 
Q 2931 2366 2743 2164 
Q 2556 1963 2206 1888 
z
" transform="scale(0.015625)"/>
       <path id="DejaVuSans-43c" d="M 581 3500 
L 1422 3500 
L 2416 1156 
L 3413 3500 
L 4247 3500 
L 4247 0 
L 3669 0 
L 3669 2950 
L 2703 672 
L 2128 672 
L 1159 2950 
L 1159 0 
L 581 0 
L 581 3500 
z
" transform="scale(0.015625)"/>
       <path id="DejaVuSans-435" d="M 3597 1894 
L 3597 1613 
L 953 1613 
Q 991 1019 1311 708 
Q 1631 397 2203 397 
Q 2534 397 2845 478 
Q 3156 559 3463 722 
L 3463 178 
Q 3153 47 2828 -22 
Q 2503 -91 2169 -91 
Q 1331 -91 842 396 
Q 353 884 353 1716 
Q 353 2575 817 3079 
Q 1281 3584 2069 3584 
Q 2775 3584 3186 3129 
Q 3597 2675 3597 1894 
z
M 3022 2063 
Q 3016 2534 2758 2815 
Q 2500 3097 2075 3097 
Q 1594 3097 1305 2825 
Q 1016 2553 972 2059 
L 3022 2063 
z
" transform="scale(0.015625)"/>
       <path id="DejaVuSans-440" d="M 1159 525 
L 1159 -1331 
L 581 -1331 
L 581 3500 
L 1159 3500 
L 1159 2969 
Q 1341 3281 1617 3432 
Q 1894 3584 2278 3584 
Q 2916 3584 3314 3078 
Q 3713 2572 3713 1747 
Q 3713 922 3314 415 
Q 2916 -91 2278 -91 
Q 1894 -91 1617 61 
Q 1341 213 1159 525 
z
M 3116 1747 
Q 3116 2381 2855 2742 
Q 2594 3103 2138 3103 
Q 1681 3103 1420 2742 
Q 1159 2381 1159 1747 
Q 1159 1113 1420 752 
Q 1681 391 2138 391 
Q 2594 391 2855 752 
Q 3116 1113 3116 1747 
z
" transform="scale(0.015625)"/>
       <path id="DejaVuSans-44b" d="M 3907 3500 
L 4482 3500 
L 4482 0 
L 3907 0 
L 3907 3500 
z
M 4195 3584 
L 4195 3584 
z
M 2781 1038 
Q 2781 1319 2576 1466 
Q 2372 1613 1978 1613 
L 1159 1613 
L 1159 459 
L 1978 459 
Q 2372 459 2576 607 
Q 2781 756 2781 1038 
z
M 581 3500 
L 1159 3500 
L 1159 2072 
L 2003 2072 
Q 2672 2072 3033 1817 
Q 3394 1563 3394 1038 
Q 3394 513 3033 256 
Q 2672 0 2003 0 
L 581 0 
L 581 3500 
z
" transform="scale(0.015625)"/>
       <path id="DejaVuSans-20" transform="scale(0.015625)"/>
       <path id="DejaVuSans-441" d="M 3122 3366 
L 3122 2828 
Q 2878 2963 2633 3030 
Q 2388 3097 2138 3097 
Q 1578 3097 1268 2742 
Q 959 2388 959 1747 
Q 959 1106 1268 751 
Q 1578 397 2138 397 
Q 2388 397 2633 464 
Q 2878 531 3122 666 
L 3122 134 
Q 2881 22 2623 -34 
Q 2366 -91 2075 -91 
Q 1284 -91 818 406 
Q 353 903 353 1747 
Q 353 2603 823 3093 
Q 1294 3584 2113 3584 
Q 2378 3584 2631 3529 
Q 2884 3475 3122 3366 
z
" transform="scale(0.015625)"/>
       <path id="DejaVuSans-438" d="M 3578 3500 
L 3578 0 
L 3006 0 
L 3006 2809 
L 1319 0 
L 581 0 
L 581 3500 
L 1153 3500 
L 1153 697 
L 2838 3500 
L 3578 3500 
z
" transform="scale(0.015625)"/>
       <path id="DejaVuSans-432" d="M 1156 1613 
L 1156 459 
L 1975 459 
Q 2369 459 2575 607 
Q 2781 756 2781 1038 
Q 2781 1319 2575 1466 
Q 2369 1613 1975 1613 
L 1156 1613 
z
M 1156 3041 
L 1156 2072 
L 1913 2072 
Q 2238 2072 2444 2201 
Q 2650 2331 2650 2563 
Q 2650 2794 2444 2917 
Q 2238 3041 1913 3041 
L 1156 3041 
z
M 581 3500 
L 1950 3500 
Q 2566 3500 2897 3275 
Q 3228 3050 3228 2634 
Q 3228 2313 3059 2123 
Q 2891 1934 2559 1888 
Q 2956 1813 3175 1575 
Q 3394 1338 3394 981 
Q 3394 513 3033 256 
Q 2672 0 2003 0 
L 581 0 
L 581 3500 
z
" transform="scale(0.015625)"/>
      </defs>
      <use xlink:href="#DejaVuSans-420"/>
      <use xlink:href="#DejaVuSans-430" x="60.302734"/>
      <use xlink:href="#DejaVuSans-437" x="121.582031"/>
      <use xlink:href="#DejaVuSans-43c" x="174.755859"/>
      <use xlink:href="#DejaVuSans-435" x="250.195312"/>
      <use xlink:href="#DejaVuSans-440" x="311.71875"/>
      <use xlink:href="#DejaVuSans-44b" x="375.195312"/>
      <use xlink:href="#DejaVuSans-20" x="454.150391"/>
      <use xlink:href="#DejaVuSans-43c" x="485.9375"/>
      <use xlink:href="#DejaVuSans-430" x="561.376953"/>
      <use xlink:href="#DejaVuSans-441" x="622.65625"/>
      <use xlink:href="#DejaVuSans-441" x="677.636719"/>
      <use xlink:href="#DejaVuSans-438" x="732.617188"/>
      <use xlink:href="#DejaVuSans-432" x="797.607422"/>
      <use xlink:href="#DejaVuSans-430" x="856.542969"/>
     </g>
    </g>
   </g>
   <g id="matplotlib.axis_2">
    <g id="ytick_1">
     <g id="line2d_19">
      <path d="M 90 369.36 
L 648 369.36 
" clip-path="url(#p9aca181329)" style="fill: none; stroke: #b0b0b0; stroke-width: 0.8; stroke-linecap: square"/>
     </g>
     <g id="line2d_20">
      <defs>
       <path id="mf05871b4ed" d="M 0 0 
L -3.5 0 
" style="stroke: #000000; stroke-width: 0.8"/>
      </defs>
      <g>
       <use xlink:href="#mf05871b4ed" x="90" y="369.36" style="stroke: #000000; stroke-width: 0.8"/>
      </g>
     </g>
     <g id="text_11">
      <!-- 0.00 -->
      <g transform="translate(60.734375 373.159219) scale(0.1 -0.1)">
       <defs>
        <path id="DejaVuSans-2e" d="M 684 794 
L 1344 794 
L 1344 0 
L 684 0 
L 684 794 
z
" transform="scale(0.015625)"/>
       </defs>
       <use xlink:href="#DejaVuSans-30"/>
       <use xlink:href="#DejaVuSans-2e" x="63.623047"/>
       <use xlink:href="#DejaVuSans-30" x="95.410156"/>
       <use xlink:href="#DejaVuSans-30" x="159.033203"/>
      </g>
     </g>
    </g>
    <g id="ytick_2">
     <g id="line2d_21">
      <path d="M 90 323.640185 
L 648 323.640185 
" clip-path="url(#p9aca181329)" style="fill: none; stroke: #b0b0b0; stroke-width: 0.8; stroke-linecap: square"/>
     </g>
     <g id="line2d_22">
      <g>
       <use xlink:href="#mf05871b4ed" x="90" y="323.640185" style="stroke: #000000; stroke-width: 0.8"/>
      </g>
     </g>
     <g id="text_12">
      <!-- 0.25 -->
      <g transform="translate(60.734375 327.439404) scale(0.1 -0.1)">
       <use xlink:href="#DejaVuSans-30"/>
       <use xlink:href="#DejaVuSans-2e" x="63.623047"/>
       <use xlink:href="#DejaVuSans-32" x="95.410156"/>
       <use xlink:href="#DejaVuSans-35" x="159.033203"/>
      </g>
     </g>
    </g>
    <g id="ytick_3">
     <g id="line2d_23">
      <path d="M 90 277.92037 
L 648 277.92037 
" clip-path="url(#p9aca181329)" style="fill: none; stroke: #b0b0b0; stroke-width: 0.8; stroke-linecap: square"/>
     </g>
     <g id="line2d_24">
      <g>
       <use xlink:href="#mf05871b4ed" x="90" y="277.92037" style="stroke: #000000; stroke-width: 0.8"/>
      </g>
     </g>
     <g id="text_13">
      <!-- 0.50 -->
      <g transform="translate(60.734375 281.719589) scale(0.1 -0.1)">
       <use xlink:href="#DejaVuSans-30"/>
       <use xlink:href="#DejaVuSans-2e" x="63.623047"/>
       <use xlink:href="#DejaVuSans-35" x="95.410156"/>
       <use xlink:href="#DejaVuSans-30" x="159.033203"/>
      </g>
     </g>
    </g>
    <g id="ytick_4">
     <g id="line2d_25">
      <path d="M 90 232.200555 
L 648 232.200555 
" clip-path="url(#p9aca181329)" style="fill: none; stroke: #b0b0b0; stroke-width: 0.8; stroke-linecap: square"/>
     </g>
     <g id="line2d_26">
      <g>
       <use xlink:href="#mf05871b4ed" x="90" y="232.200555" style="stroke: #000000; stroke-width: 0.8"/>
      </g>
     </g>
     <g id="text_14">
      <!-- 0.75 -->
      <g transform="translate(60.734375 235.999774) scale(0.1 -0.1)">
       <use xlink:href="#DejaVuSans-30"/>
       <use xlink:href="#DejaVuSans-2e" x="63.623047"/>
       <use xlink:href="#DejaVuSans-37" x="95.410156"/>
       <use xlink:href="#DejaVuSans-35" x="159.033203"/>
      </g>
     </g>
    </g>
    <g id="ytick_5">
     <g id="line2d_27">
      <path d="M 90 186.48074 
L 648 186.48074 
" clip-path="url(#p9aca181329)" style="fill: none; stroke: #b0b0b0; stroke-width: 0.8; stroke-linecap: square"/>
     </g>
     <g id="line2d_28">
      <g>
       <use xlink:href="#mf05871b4ed" x="90" y="186.48074" style="stroke: #000000; stroke-width: 0.8"/>
      </g>
     </g>
     <g id="text_15">
      <!-- 1.00 -->
      <g transform="translate(60.734375 190.279959) scale(0.1 -0.1)">
       <use xlink:href="#DejaVuSans-31"/>
       <use xlink:href="#DejaVuSans-2e" x="63.623047"/>
       <use xlink:href="#DejaVuSans-30" x="95.410156"/>
       <use xlink:href="#DejaVuSans-30" x="159.033203"/>
      </g>
     </g>
    </g>
    <g id="ytick_6">
     <g id="line2d_29">
      <path d="M 90 140.760925 
L 648 140.760925 
" clip-path="url(#p9aca181329)" style="fill: none; stroke: #b0b0b0; stroke-width: 0.8; stroke-linecap: square"/>
     </g>
     <g id="line2d_30">
      <g>
       <use xlink:href="#mf05871b4ed" x="90" y="140.760925" style="stroke: #000000; stroke-width: 0.8"/>
      </g>
     </g>
     <g id="text_16">
      <!-- 1.25 -->
      <g transform="translate(60.734375 144.560144) scale(0.1 -0.1)">
       <use xlink:href="#DejaVuSans-31"/>
       <use xlink:href="#DejaVuSans-2e" x="63.623047"/>
       <use xlink:href="#DejaVuSans-32" x="95.410156"/>
       <use xlink:href="#DejaVuSans-35" x="159.033203"/>
      </g>
     </g>
    </g>
    <g id="ytick_7">
     <g id="line2d_31">
      <path d="M 90 95.04111 
L 648 95.04111 
" clip-path="url(#p9aca181329)" style="fill: none; stroke: #b0b0b0; stroke-width: 0.8; stroke-linecap: square"/>
     </g>
     <g id="line2d_32">
      <g>
       <use xlink:href="#mf05871b4ed" x="90" y="95.04111" style="stroke: #000000; stroke-width: 0.8"/>
      </g>
     </g>
     <g id="text_17">
      <!-- 1.50 -->
      <g transform="translate(60.734375 98.840329) scale(0.1 -0.1)">
       <use xlink:href="#DejaVuSans-31"/>
       <use xlink:href="#DejaVuSans-2e" x="63.623047"/>
       <use xlink:href="#DejaVuSans-35" x="95.410156"/>
       <use xlink:href="#DejaVuSans-30" x="159.033203"/>
      </g>
     </g>
    </g>
    <g id="text_18">
     <!-- Время выполнения -->
     <g transform="translate(54.654687 268.499844) rotate(-90) scale(0.1 -0.1)">
      <defs>
       <path id="DejaVuSans-412" d="M 1259 2228 
L 1259 519 
L 2272 519 
Q 2781 519 3026 730 
Q 3272 941 3272 1375 
Q 3272 1813 3026 2020 
Q 2781 2228 2272 2228 
L 1259 2228 
z
M 1259 4147 
L 1259 2741 
L 2194 2741 
Q 2656 2741 2882 2914 
Q 3109 3088 3109 3444 
Q 3109 3797 2882 3972 
Q 2656 4147 2194 4147 
L 1259 4147 
z
M 628 4666 
L 2241 4666 
Q 2963 4666 3353 4366 
Q 3744 4066 3744 3513 
Q 3744 3084 3544 2831 
Q 3344 2578 2956 2516 
Q 3422 2416 3680 2098 
Q 3938 1781 3938 1306 
Q 3938 681 3513 340 
Q 3088 0 2303 0 
L 628 0 
L 628 4666 
z
" transform="scale(0.015625)"/>
       <path id="DejaVuSans-44f" d="M 1181 2491 
Q 1181 2231 1381 2084 
Q 1581 1938 1953 1938 
L 2728 1938 
L 2728 3041 
L 1953 3041 
Q 1581 3041 1381 2897 
Q 1181 2753 1181 2491 
z
M 363 0 
L 1431 1534 
Q 1069 1616 828 1830 
Q 588 2044 588 2491 
Q 588 2997 923 3248 
Q 1259 3500 1938 3500 
L 3306 3500 
L 3306 0 
L 2728 0 
L 2728 1478 
L 2013 1478 
L 981 0 
L 363 0 
z
" transform="scale(0.015625)"/>
       <path id="DejaVuSans-43f" d="M 3603 3500 
L 3603 0 
L 3025 0 
L 3025 3041 
L 1159 3041 
L 1159 0 
L 581 0 
L 581 3500 
L 3603 3500 
z
" transform="scale(0.015625)"/>
       <path id="DejaVuSans-43e" d="M 1959 3097 
Q 1497 3097 1228 2736 
Q 959 2375 959 1747 
Q 959 1119 1226 758 
Q 1494 397 1959 397 
Q 2419 397 2687 759 
Q 2956 1122 2956 1747 
Q 2956 2369 2687 2733 
Q 2419 3097 1959 3097 
z
M 1959 3584 
Q 2709 3584 3137 3096 
Q 3566 2609 3566 1747 
Q 3566 888 3137 398 
Q 2709 -91 1959 -91 
Q 1206 -91 779 398 
Q 353 888 353 1747 
Q 353 2609 779 3096 
Q 1206 3584 1959 3584 
z
" transform="scale(0.015625)"/>
       <path id="DejaVuSans-43b" d="M 238 0 
L 238 478 
Q 806 566 981 959 
Q 1194 1513 1194 2928 
L 1194 3500 
L 3559 3500 
L 3559 0 
L 2984 0 
L 2984 3041 
L 1769 3041 
L 1769 2694 
Q 1769 1344 1494 738 
Q 1200 91 238 0 
z
" transform="scale(0.015625)"/>
       <path id="DejaVuSans-43d" d="M 581 3500 
L 1159 3500 
L 1159 2072 
L 3025 2072 
L 3025 3500 
L 3603 3500 
L 3603 0 
L 3025 0 
L 3025 1613 
L 1159 1613 
L 1159 0 
L 581 0 
L 581 3500 
z
" transform="scale(0.015625)"/>
      </defs>
      <use xlink:href="#DejaVuSans-412"/>
      <use xlink:href="#DejaVuSans-440" x="68.603516"/>
      <use xlink:href="#DejaVuSans-435" x="132.080078"/>
      <use xlink:href="#DejaVuSans-43c" x="193.603516"/>
      <use xlink:href="#DejaVuSans-44f" x="269.042969"/>
      <use xlink:href="#DejaVuSans-20" x="329.199219"/>
      <use xlink:href="#DejaVuSans-432" x="360.986328"/>
      <use xlink:href="#DejaVuSans-44b" x="419.921875"/>
      <use xlink:href="#DejaVuSans-43f" x="498.876953"/>
      <use xlink:href="#DejaVuSans-43e" x="564.257812"/>
      <use xlink:href="#DejaVuSans-43b" x="625.439453"/>
      <use xlink:href="#DejaVuSans-43d" x="689.355469"/>
      <use xlink:href="#DejaVuSans-435" x="754.736328"/>
      <use xlink:href="#DejaVuSans-43d" x="816.259766"/>
      <use xlink:href="#DejaVuSans-438" x="881.640625"/>
      <use xlink:href="#DejaVuSans-44f" x="946.630859"/>
     </g>
    </g>
    <g id="text_19">
     <!-- 1e7 -->
     <g transform="translate(90 48.84) scale(0.1 -0.1)">
      <defs>
       <path id="DejaVuSans-65" d="M 3597 1894 
L 3597 1613 
L 953 1613 
Q 991 1019 1311 708 
Q 1631 397 2203 397 
Q 2534 397 2845 478 
Q 3156 559 3463 722 
L 3463 178 
Q 3153 47 2828 -22 
Q 2503 -91 2169 -91 
Q 1331 -91 842 396 
Q 353 884 353 1716 
Q 353 2575 817 3079 
Q 1281 3584 2069 3584 
Q 2775 3584 3186 3129 
Q 3597 2675 3597 1894 
z
M 3022 2063 
Q 3016 2534 2758 2815 
Q 2500 3097 2075 3097 
Q 1594 3097 1305 2825 
Q 1016 2553 972 2059 
L 3022 2063 
z
" transform="scale(0.015625)"/>
      </defs>
      <use xlink:href="#DejaVuSans-31"/>
      <use xlink:href="#DejaVuSans-65" x="63.623047"/>
      <use xlink:href="#DejaVuSans-37" x="125.146484"/>
     </g>
    </g>
   </g>
   <g id="line2d_33">
    <path d="M 115.363636 369.36 
L 128.370629 369.33248 
L 141.377622 369.307941 
L 154.384615 369.290728 
L 167.391608 369.273628 
L 180.398601 369.269553 
L 193.405594 369.25767 
L 206.412587 369.246792 
L 219.41958 369.247335 
L 232.426573 369.22404 
L 245.433566 369.205885 
L 258.440559 369.184676 
L 271.447552 369.163812 
L 284.454545 369.118998 
L 297.461538 369.082198 
L 310.468531 369.072796 
L 323.475524 369.044565 
L 336.482517 369.003151 
L 349.48951 368.974277 
L 362.496503 368.955881 
L 375.503497 368.924981 
L 388.51049 368.875278 
L 401.517483 368.840746 
L 414.524476 368.803028 
L 427.531469 368.783574 
L 440.538462 368.731256 
L 453.545455 368.720388 
L 466.552448 368.683085 
L 479.559441 368.637922 
L 492.566434 368.589661 
L 505.573427 368.577345 
L 518.58042 368.54934 
L 531.587413 368.514615 
L 544.594406 368.463526 
L 557.601399 368.436841 
L 570.608392 368.425411 
L 583.615385 368.396836 
L 596.622378 368.343255 
L 609.629371 368.286811 
L 622.636364 368.273817 
" clip-path="url(#p9aca181329)" style="fill: none; stroke: #1f77b4; stroke-width: 1.5; stroke-linecap: square"/>
   </g>
   <g id="line2d_34">
    <path d="M 115.363636 369.36 
L 128.370629 368.94395 
L 141.377622 367.798211 
L 154.384615 366.236422 
L 167.391608 364.92152 
L 180.398601 362.997631 
L 193.405594 361.530939 
L 206.412587 359.464403 
L 219.41958 356.89495 
L 232.426573 353.97071 
L 245.433566 350.091841 
L 258.440559 345.609471 
L 271.447552 339.303794 
L 284.454545 334.157571 
L 297.461538 328.773606 
L 310.468531 324.552753 
L 323.475524 319.454079 
L 336.482517 313.168519 
L 349.48951 306.045371 
L 362.496503 298.664365 
L 375.503497 291.956353 
L 388.51049 284.002934 
L 401.517483 275.049166 
L 414.524476 265.245009 
L 427.531469 257.308049 
L 440.538462 247.93 
L 453.545455 237.847867 
L 466.552448 226.818419 
L 479.559441 217.105701 
L 492.566434 206.694385 
L 505.573427 193.627662 
L 518.58042 181.914245 
L 531.587413 169.904564 
L 544.594406 155.757025 
L 557.601399 139.780692 
L 570.608392 125.920273 
L 583.615385 111.23324 
L 596.622378 96.57181 
L 609.629371 83.698939 
L 622.636364 67.166654 
" clip-path="url(#p9aca181329)" style="fill: none; stroke: #ff7f0e; stroke-width: 1.5; stroke-linecap: square"/>
   </g>
   <g id="line2d_35">
    <path d="M 115.363636 369.36 
L 128.370629 368.949225 
L 141.377622 367.98231 
L 154.384615 366.205333 
L 167.391608 364.919692 
L 180.398601 363.442942 
L 193.405594 361.556542 
L 206.412587 359.671057 
L 219.41958 357.134521 
L 232.426573 353.961566 
L 245.433566 350.066238 
L 258.440559 345.861844 
L 271.447552 339.479358 
L 284.454545 334.411773 
L 297.461538 330.763332 
L 310.468531 323.861469 
L 323.475524 319.17976 
L 336.482517 313.042332 
L 349.48951 305.10903 
L 362.496503 299.090473 
L 375.503497 292.071567 
L 388.51049 283.05562 
L 401.517483 275.444185 
L 414.524476 263.357085 
L 427.531469 255.301863 
L 440.538462 247.119845 
L 453.545455 238.155104 
L 466.552448 227.169547 
L 479.559441 217.848191 
L 492.566434 206.602945 
L 505.573427 193.922097 
L 518.58042 181.345491 
L 531.587413 169.505887 
L 544.594406 153.661228 
L 557.601399 139.230226 
L 570.608392 126.262258 
L 583.615385 110.655342 
L 596.622378 97.5557 
L 609.629371 83.386215 
L 622.636364 66.96 
" clip-path="url(#p9aca181329)" style="fill: none; stroke: #008000; stroke-width: 1.5; stroke-linecap: square"/>
   </g>
   <g id="patch_3">
    <path d="M 90 384.48 
L 90 51.84 
" style="fill: none; stroke: #000000; stroke-width: 0.8; stroke-linejoin: miter; stroke-linecap: square"/>
   </g>
   <g id="patch_4">
    <path d="M 648 384.48 
L 648 51.84 
" style="fill: none; stroke: #000000; stroke-width: 0.8; stroke-linejoin: miter; stroke-linecap: square"/>
   </g>
   <g id="patch_5">
    <path d="M 90 384.48 
L 648 384.48 
" style="fill: none; stroke: #000000; stroke-width: 0.8; stroke-linejoin: miter; stroke-linecap: square"/>
   </g>
   <g id="patch_6">
    <path d="M 90 51.84 
L 648 51.84 
" style="fill: none; stroke: #000000; stroke-width: 0.8; stroke-linejoin: miter; stroke-linecap: square"/>
   </g>
   <g id="text_20">
    <!-- Время сортировки рандомного массива -->
    <g transform="translate(242.727188 45.84) scale(0.12 -0.12)">
     <defs>
      <path id="DejaVuSans-442" d="M 188 3500 
L 3541 3500 
L 3541 3041 
L 2147 3041 
L 2147 0 
L 1581 0 
L 1581 3041 
L 188 3041 
L 188 3500 
z
" transform="scale(0.015625)"/>
      <path id="DejaVuSans-43a" d="M 581 3500 
L 1153 3500 
L 1153 1856 
L 2775 3500 
L 3481 3500 
L 2144 2147 
L 3653 0 
L 3009 0 
L 1769 1766 
L 1153 1141 
L 1153 0 
L 581 0 
L 581 3500 
z
" transform="scale(0.015625)"/>
      <path id="DejaVuSans-434" d="M 1384 459 
L 3053 459 
L 3053 3041 
L 1844 3041 
L 1844 2603 
Q 1844 1316 1475 628 
L 1384 459 
z
M 550 459 
Q 834 584 959 850 
Q 1266 1509 1266 2838 
L 1266 3500 
L 3631 3500 
L 3631 459 
L 4091 459 
L 4091 -884 
L 3631 -884 
L 3631 0 
L 794 0 
L 794 -884 
L 334 -884 
L 334 459 
L 550 459 
z
" transform="scale(0.015625)"/>
      <path id="DejaVuSans-433" d="M 581 0 
L 581 3500 
L 3050 3500 
L 3050 3041 
L 1159 3041 
L 1159 0 
L 581 0 
z
" transform="scale(0.015625)"/>
     </defs>
     <use xlink:href="#DejaVuSans-412"/>
     <use xlink:href="#DejaVuSans-440" x="68.603516"/>
     <use xlink:href="#DejaVuSans-435" x="132.080078"/>
     <use xlink:href="#DejaVuSans-43c" x="193.603516"/>
     <use xlink:href="#DejaVuSans-44f" x="269.042969"/>
     <use xlink:href="#DejaVuSans-20" x="329.199219"/>
     <use xlink:href="#DejaVuSans-441" x="360.986328"/>
     <use xlink:href="#DejaVuSans-43e" x="415.966797"/>
     <use xlink:href="#DejaVuSans-440" x="477.148438"/>
     <use xlink:href="#DejaVuSans-442" x="540.625"/>
     <use xlink:href="#DejaVuSans-438" x="598.876953"/>
     <use xlink:href="#DejaVuSans-440" x="663.867188"/>
     <use xlink:href="#DejaVuSans-43e" x="727.34375"/>
     <use xlink:href="#DejaVuSans-432" x="788.525391"/>
     <use xlink:href="#DejaVuSans-43a" x="847.460938"/>
     <use xlink:href="#DejaVuSans-438" x="907.861328"/>
     <use xlink:href="#DejaVuSans-20" x="972.851562"/>
     <use xlink:href="#DejaVuSans-440" x="1004.638672"/>
     <use xlink:href="#DejaVuSans-430" x="1068.115234"/>
     <use xlink:href="#DejaVuSans-43d" x="1129.394531"/>
     <use xlink:href="#DejaVuSans-434" x="1194.775391"/>
     <use xlink:href="#DejaVuSans-43e" x="1263.916016"/>
     <use xlink:href="#DejaVuSans-43c" x="1325.097656"/>
     <use xlink:href="#DejaVuSans-43d" x="1400.537109"/>
     <use xlink:href="#DejaVuSans-43e" x="1465.917969"/>
     <use xlink:href="#DejaVuSans-433" x="1527.099609"/>
     <use xlink:href="#DejaVuSans-43e" x="1579.638672"/>
     <use xlink:href="#DejaVuSans-20" x="1640.820312"/>
     <use xlink:href="#DejaVuSans-43c" x="1672.607422"/>
     <use xlink:href="#DejaVuSans-430" x="1748.046875"/>
     <use xlink:href="#DejaVuSans-441" x="1809.326172"/>
     <use xlink:href="#DejaVuSans-441" x="1864.306641"/>
     <use xlink:href="#DejaVuSans-438" x="1919.287109"/>
     <use xlink:href="#DejaVuSans-432" x="1984.277344"/>
     <use xlink:href="#DejaVuSans-430" x="2043.212891"/>
    </g>
   </g>
   <g id="legend_1">
    <g id="patch_7">
     <path d="M 97 104.044688 
L 360.009375 104.044688 
Q 362.009375 104.044688 362.009375 102.044688 
L 362.009375 58.84 
Q 362.009375 56.84 360.009375 56.84 
L 97 56.84 
Q 95 56.84 95 58.84 
L 95 102.044688 
Q 95 104.044688 97 104.044688 
z
" style="fill: #ffffff; opacity: 0.8; stroke: #cccccc; stroke-linejoin: miter"/>
    </g>
    <g id="line2d_36">
     <path d="M 99 64.938438 
L 109 64.938438 
L 119 64.938438 
" style="fill: none; stroke: #1f77b4; stroke-width: 1.5; stroke-linecap: square"/>
    </g>
    <g id="text_21">
     <!-- qsort -->
     <g transform="translate(127 68.438438) scale(0.1 -0.1)">
      <defs>
       <path id="DejaVuSans-71" d="M 947 1747 
Q 947 1113 1208 752 
Q 1469 391 1925 391 
Q 2381 391 2643 752 
Q 2906 1113 2906 1747 
Q 2906 2381 2643 2742 
Q 2381 3103 1925 3103 
Q 1469 3103 1208 2742 
Q 947 2381 947 1747 
z
M 2906 525 
Q 2725 213 2448 61 
Q 2172 -91 1784 -91 
Q 1150 -91 751 415 
Q 353 922 353 1747 
Q 353 2572 751 3078 
Q 1150 3584 1784 3584 
Q 2172 3584 2448 3432 
Q 2725 3281 2906 2969 
L 2906 3500 
L 3481 3500 
L 3481 -1331 
L 2906 -1331 
L 2906 525 
z
" transform="scale(0.015625)"/>
       <path id="DejaVuSans-73" d="M 2834 3397 
L 2834 2853 
Q 2591 2978 2328 3040 
Q 2066 3103 1784 3103 
Q 1356 3103 1142 2972 
Q 928 2841 928 2578 
Q 928 2378 1081 2264 
Q 1234 2150 1697 2047 
L 1894 2003 
Q 2506 1872 2764 1633 
Q 3022 1394 3022 966 
Q 3022 478 2636 193 
Q 2250 -91 1575 -91 
Q 1294 -91 989 -36 
Q 684 19 347 128 
L 347 722 
Q 666 556 975 473 
Q 1284 391 1588 391 
Q 1994 391 2212 530 
Q 2431 669 2431 922 
Q 2431 1156 2273 1281 
Q 2116 1406 1581 1522 
L 1381 1569 
Q 847 1681 609 1914 
Q 372 2147 372 2553 
Q 372 3047 722 3315 
Q 1072 3584 1716 3584 
Q 2034 3584 2315 3537 
Q 2597 3491 2834 3397 
z
" transform="scale(0.015625)"/>
       <path id="DejaVuSans-6f" d="M 1959 3097 
Q 1497 3097 1228 2736 
Q 959 2375 959 1747 
Q 959 1119 1226 758 
Q 1494 397 1959 397 
Q 2419 397 2687 759 
Q 2956 1122 2956 1747 
Q 2956 2369 2687 2733 
Q 2419 3097 1959 3097 
z
M 1959 3584 
Q 2709 3584 3137 3096 
Q 3566 2609 3566 1747 
Q 3566 888 3137 398 
Q 2709 -91 1959 -91 
Q 1206 -91 779 398 
Q 353 888 353 1747 
Q 353 2609 779 3096 
Q 1206 3584 1959 3584 
z
" transform="scale(0.015625)"/>
       <path id="DejaVuSans-72" d="M 2631 2963 
Q 2534 3019 2420 3045 
Q 2306 3072 2169 3072 
Q 1681 3072 1420 2755 
Q 1159 2438 1159 1844 
L 1159 0 
L 581 0 
L 581 3500 
L 1159 3500 
L 1159 2956 
Q 1341 3275 1631 3429 
Q 1922 3584 2338 3584 
Q 2397 3584 2469 3576 
Q 2541 3569 2628 3553 
L 2631 2963 
z
" transform="scale(0.015625)"/>
       <path id="DejaVuSans-74" d="M 1172 4494 
L 1172 3500 
L 2356 3500 
L 2356 3053 
L 1172 3053 
L 1172 1153 
Q 1172 725 1289 603 
Q 1406 481 1766 481 
L 2356 481 
L 2356 0 
L 1766 0 
Q 1100 0 847 248 
Q 594 497 594 1153 
L 594 3053 
L 172 3053 
L 172 3500 
L 594 3500 
L 594 4494 
L 1172 4494 
z
" transform="scale(0.015625)"/>
      </defs>
      <use xlink:href="#DejaVuSans-71"/>
      <use xlink:href="#DejaVuSans-73" x="63.476562"/>
      <use xlink:href="#DejaVuSans-6f" x="115.576172"/>
      <use xlink:href="#DejaVuSans-72" x="176.757812"/>
      <use xlink:href="#DejaVuSans-74" x="217.871094"/>
     </g>
    </g>
    <g id="line2d_37">
     <path d="M 99 79.616563 
L 109 79.616563 
L 119 79.616563 
" style="fill: none; stroke: #ff7f0e; stroke-width: 1.5; stroke-linecap: square"/>
    </g>
    <g id="text_22">
     <!-- Модифицированная сортировка пузырьком -->
     <g transform="translate(127 83.116563) scale(0.1 -0.1)">
      <defs>
       <path id="DejaVuSans-41c" d="M 628 4666 
L 1569 4666 
L 2759 1491 
L 3956 4666 
L 4897 4666 
L 4897 0 
L 4281 0 
L 4281 4097 
L 3078 897 
L 2444 897 
L 1241 4097 
L 1241 0 
L 628 0 
L 628 4666 
z
" transform="scale(0.015625)"/>
       <path id="DejaVuSans-444" d="M 947 1747 
Q 947 1013 1173 702 
Q 1400 391 1784 391 
Q 2091 391 2447 916 
L 2447 2578 
Q 2091 3103 1784 3103 
Q 1400 3103 1173 2792 
Q 947 2481 947 1747 
z
M 2447 -1331 
L 2447 447 
Q 2269 153 2064 31 
Q 1859 -91 1600 -91 
Q 1078 -91 714 392 
Q 350 875 350 1734 
Q 350 2594 714 3089 
Q 1078 3584 1600 3584 
Q 1859 3584 2064 3465 
Q 2269 3347 2447 3053 
L 2447 4666 
L 3025 4666 
L 3025 3053 
Q 3203 3347 3408 3465 
Q 3613 3584 3872 3584 
Q 4394 3584 4758 3089 
Q 5122 2594 5122 1734 
Q 5122 875 4758 392 
Q 4394 -91 3872 -91 
Q 3613 -91 3408 31 
Q 3203 153 3025 447 
L 3025 -1331 
L 2447 -1331 
z
M 4525 1747 
Q 4525 2481 4298 2792 
Q 4072 3103 3688 3103 
Q 3381 3103 3025 2578 
L 3025 916 
Q 3381 391 3688 391 
Q 4072 391 4298 702 
Q 4525 1013 4525 1747 
z
" transform="scale(0.015625)"/>
       <path id="DejaVuSans-446" d="M 3603 0 
L 581 0 
L 581 3500 
L 1159 3500 
L 1159 459 
L 3025 459 
L 3025 3500 
L 3603 3500 
L 3603 459 
L 4063 459 
L 4063 -884 
L 3603 -884 
L 3603 0 
z
" transform="scale(0.015625)"/>
       <path id="DejaVuSans-443" d="M 2059 -325 
Q 1816 -950 1584 -1140 
Q 1353 -1331 966 -1331 
L 506 -1331 
L 506 -850 
L 844 -850 
Q 1081 -850 1212 -737 
Q 1344 -625 1503 -206 
L 1606 56 
L 191 3500 
L 800 3500 
L 1894 763 
L 2988 3500 
L 3597 3500 
L 2059 -325 
z
" transform="scale(0.015625)"/>
       <path id="DejaVuSans-44c" d="M 2781 1038 
Q 2781 1319 2576 1466 
Q 2372 1613 1978 1613 
L 1159 1613 
L 1159 459 
L 1978 459 
Q 2372 459 2576 607 
Q 2781 756 2781 1038 
z
M 581 3500 
L 1159 3500 
L 1159 2072 
L 2003 2072 
Q 2672 2072 3033 1817 
Q 3394 1563 3394 1038 
Q 3394 513 3033 256 
Q 2672 0 2003 0 
L 581 0 
L 581 3500 
z
" transform="scale(0.015625)"/>
      </defs>
      <use xlink:href="#DejaVuSans-41c"/>
      <use xlink:href="#DejaVuSans-43e" x="86.279297"/>
      <use xlink:href="#DejaVuSans-434" x="147.460938"/>
      <use xlink:href="#DejaVuSans-438" x="216.601562"/>
      <use xlink:href="#DejaVuSans-444" x="281.591797"/>
      <use xlink:href="#DejaVuSans-438" x="367.089844"/>
      <use xlink:href="#DejaVuSans-446" x="432.080078"/>
      <use xlink:href="#DejaVuSans-438" x="500.146484"/>
      <use xlink:href="#DejaVuSans-440" x="565.136719"/>
      <use xlink:href="#DejaVuSans-43e" x="628.613281"/>
      <use xlink:href="#DejaVuSans-432" x="689.794922"/>
      <use xlink:href="#DejaVuSans-430" x="748.730469"/>
      <use xlink:href="#DejaVuSans-43d" x="810.009766"/>
      <use xlink:href="#DejaVuSans-43d" x="875.390625"/>
      <use xlink:href="#DejaVuSans-430" x="940.771484"/>
      <use xlink:href="#DejaVuSans-44f" x="1002.050781"/>
      <use xlink:href="#DejaVuSans-20" x="1062.207031"/>
      <use xlink:href="#DejaVuSans-441" x="1093.994141"/>
      <use xlink:href="#DejaVuSans-43e" x="1148.974609"/>
      <use xlink:href="#DejaVuSans-440" x="1210.15625"/>
      <use xlink:href="#DejaVuSans-442" x="1273.632812"/>
      <use xlink:href="#DejaVuSans-438" x="1331.884766"/>
      <use xlink:href="#DejaVuSans-440" x="1396.875"/>
      <use xlink:href="#DejaVuSans-43e" x="1460.351562"/>
      <use xlink:href="#DejaVuSans-432" x="1521.533203"/>
      <use xlink:href="#DejaVuSans-43a" x="1580.46875"/>
      <use xlink:href="#DejaVuSans-430" x="1640.869141"/>
      <use xlink:href="#DejaVuSans-20" x="1702.148438"/>
      <use xlink:href="#DejaVuSans-43f" x="1733.935547"/>
      <use xlink:href="#DejaVuSans-443" x="1799.316406"/>
      <use xlink:href="#DejaVuSans-437" x="1858.496094"/>
      <use xlink:href="#DejaVuSans-44b" x="1911.669922"/>
      <use xlink:href="#DejaVuSans-440" x="1990.625"/>
      <use xlink:href="#DejaVuSans-44c" x="2054.101562"/>
      <use xlink:href="#DejaVuSans-43a" x="2113.037109"/>
      <use xlink:href="#DejaVuSans-43e" x="2173.4375"/>
      <use xlink:href="#DejaVuSans-43c" x="2234.619141"/>
     </g>
    </g>
    <g id="line2d_38">
     <path d="M 99 94.465 
L 109 94.465 
L 119 94.465 
" style="fill: none; stroke: #008000; stroke-width: 1.5; stroke-linecap: square"/>
    </g>
    <g id="text_23">
     <!-- Обычная сортировка пузырьком -->
     <g transform="translate(127 97.965) scale(0.1 -0.1)">
      <defs>
       <path id="DejaVuSans-41e" d="M 2522 4238 
Q 1834 4238 1429 3725 
Q 1025 3213 1025 2328 
Q 1025 1447 1429 934 
Q 1834 422 2522 422 
Q 3209 422 3611 934 
Q 4013 1447 4013 2328 
Q 4013 3213 3611 3725 
Q 3209 4238 2522 4238 
z
M 2522 4750 
Q 3503 4750 4090 4092 
Q 4678 3434 4678 2328 
Q 4678 1225 4090 567 
Q 3503 -91 2522 -91 
Q 1538 -91 948 565 
Q 359 1222 359 2328 
Q 359 3434 948 4092 
Q 1538 4750 2522 4750 
z
" transform="scale(0.015625)"/>
       <path id="DejaVuSans-431" d="M 1991 3584 
Q 2741 3584 3169 3096 
Q 3597 2609 3597 1747 
Q 3597 888 3169 398 
Q 2741 -91 1991 -91 
Q 1238 -91 822 384 
Q 406 859 384 1747 
L 366 2463 
Q 350 2834 350 2963 
Q 350 3463 531 3831 
Q 816 4409 1308 4659 
Q 1800 4909 2625 4916 
Q 3006 4919 3175 4972 
L 3334 4516 
Q 3181 4453 3041 4450 
L 2259 4397 
Q 1866 4369 1628 4231 
Q 1006 3866 947 3388 
L 925 3213 
Q 1331 3584 1991 3584 
z
M 1991 3097 
Q 1528 3097 1259 2736 
Q 991 2375 991 1747 
Q 991 1119 1258 758 
Q 1525 397 1991 397 
Q 2450 397 2719 759 
Q 2988 1122 2988 1747 
Q 2988 2369 2719 2733 
Q 2450 3097 1991 3097 
z
" transform="scale(0.015625)"/>
       <path id="DejaVuSans-447" d="M 2625 0 
L 2625 1472 
L 1553 1472 
Q 1075 1472 756 1769 
Q 469 2038 469 2613 
L 469 3500 
L 1044 3500 
L 1044 2666 
Q 1044 2300 1206 2116 
Q 1372 1931 1697 1931 
L 2625 1931 
L 2625 3500 
L 3200 3500 
L 3200 0 
L 2625 0 
z
" transform="scale(0.015625)"/>
      </defs>
      <use xlink:href="#DejaVuSans-41e"/>
      <use xlink:href="#DejaVuSans-431" x="78.710938"/>
      <use xlink:href="#DejaVuSans-44b" x="140.380859"/>
      <use xlink:href="#DejaVuSans-447" x="219.335938"/>
      <use xlink:href="#DejaVuSans-43d" x="278.417969"/>
      <use xlink:href="#DejaVuSans-430" x="343.798828"/>
      <use xlink:href="#DejaVuSans-44f" x="405.078125"/>
      <use xlink:href="#DejaVuSans-20" x="465.234375"/>
      <use xlink:href="#DejaVuSans-441" x="497.021484"/>
      <use xlink:href="#DejaVuSans-43e" x="552.001953"/>
      <use xlink:href="#DejaVuSans-440" x="613.183594"/>
      <use xlink:href="#DejaVuSans-442" x="676.660156"/>
      <use xlink:href="#DejaVuSans-438" x="734.912109"/>
      <use xlink:href="#DejaVuSans-440" x="799.902344"/>
      <use xlink:href="#DejaVuSans-43e" x="863.378906"/>
      <use xlink:href="#DejaVuSans-432" x="924.560547"/>
      <use xlink:href="#DejaVuSans-43a" x="983.496094"/>
      <use xlink:href="#DejaVuSans-430" x="1043.896484"/>
      <use xlink:href="#DejaVuSans-20" x="1105.175781"/>
      <use xlink:href="#DejaVuSans-43f" x="1136.962891"/>
      <use xlink:href="#DejaVuSans-443" x="1202.34375"/>
      <use xlink:href="#DejaVuSans-437" x="1261.523438"/>
      <use xlink:href="#DejaVuSans-44b" x="1314.697266"/>
      <use xlink:href="#DejaVuSans-440" x="1393.652344"/>
      <use xlink:href="#DejaVuSans-44c" x="1457.128906"/>
      <use xlink:href="#DejaVuSans-43a" x="1516.064453"/>
      <use xlink:href="#DejaVuSans-43e" x="1576.464844"/>
      <use xlink:href="#DejaVuSans-43c" x="1637.646484"/>
     </g>
    </g>
   </g>
  </g>
 </g>
 <defs>
  <clipPath id="p9aca181329">
   <rect x="90" y="51.84" width="558" height="332.64"/>
  </clipPath>
 </defs>
</svg>
